<svg width="20" height="20" viewBox="0 0 20 20" fill="none" xmlns="http://www.w3.org/2000/svg">
<path fill-rule="evenodd" clip-rule="evenodd" d="M8.2864 2.70837H11.7138C13.2452 2.70836 14.4583 2.70835 15.4076 2.83599C16.3846 2.96734 17.1754 3.24411 17.799 3.86774C18.4227 4.49138 18.6994 5.28217 18.8308 6.25919C18.9584 7.20853 18.9584 8.42156 18.9584 9.95303V10.0471C18.9584 11.5785 18.9584 12.7915 18.8308 13.7409C18.6994 14.7179 18.4227 15.5087 17.799 16.1323C17.1754 16.756 16.3846 17.0327 15.4076 17.1641C14.4583 17.2917 13.2452 17.2917 11.7138 17.2917H8.28641C6.75494 17.2917 5.54191 17.2917 4.59256 17.1641C3.61554 17.0327 2.82475 16.756 2.20112 16.1323C1.57748 15.5087 1.30072 14.7179 1.16936 13.7409C1.04172 12.7915 1.04174 11.5785 1.04175 10.0471V9.95303C1.04174 8.42156 1.04172 7.20853 1.16936 6.25919C1.30072 5.28217 1.57748 4.49138 2.20112 3.86774C2.82475 3.24411 3.61554 2.96734 4.59256 2.83599C5.54191 2.70835 6.75493 2.70836 8.2864 2.70837ZM4.75912 4.07484C3.92071 4.18756 3.43768 4.39895 3.085 4.75163C2.73233 5.1043 2.52094 5.58734 2.40821 6.42575C2.29308 7.28214 2.29175 8.41102 2.29175 10C2.29175 11.5891 2.29308 12.7179 2.40821 13.5743C2.52094 14.4127 2.73233 14.8958 3.085 15.2485C3.43768 15.6011 3.92071 15.8125 4.75912 15.9252C5.61551 16.0404 6.7444 16.0417 8.33341 16.0417H11.6667C13.2558 16.0417 14.3847 16.0404 15.241 15.9252C16.0794 15.8125 16.5625 15.6011 16.9152 15.2485C17.2678 14.8958 17.4792 14.4127 17.5919 13.5743C17.7071 12.7179 17.7084 11.5891 17.7084 10C17.7084 8.41102 17.7071 7.28214 17.5919 6.42575C17.4792 5.58734 17.2678 5.1043 16.9152 4.75163C16.5625 4.39895 16.0794 4.18756 15.241 4.07484C14.3847 3.9597 13.2558 3.95837 11.6667 3.95837H8.33341C6.7444 3.95837 5.61551 3.9597 4.75912 4.07484ZM4.51994 6.26659C4.74092 6.00142 5.13502 5.96559 5.4002 6.18657L7.19928 7.6858C7.97674 8.33369 8.51652 8.78205 8.97223 9.07515C9.41337 9.35887 9.71252 9.4541 10.0001 9.4541C10.2876 9.4541 10.5868 9.35887 11.0279 9.07515C11.4836 8.78205 12.0234 8.33369 12.8009 7.6858L14.6 6.18657C14.8651 5.96559 15.2592 6.00142 15.4802 6.26659C15.7012 6.53177 15.6654 6.92587 15.4002 7.14685L13.5698 8.67219C12.8312 9.28773 12.2325 9.78664 11.7041 10.1265C11.1537 10.4805 10.6176 10.7041 10.0001 10.7041C9.38252 10.7041 8.84648 10.4805 8.29606 10.1265C7.76768 9.78664 7.16901 9.28774 6.43038 8.67219L4.59997 7.14685C4.33479 6.92587 4.29897 6.53177 4.51994 6.26659Z" fill="#121212" fill-opacity="0.6"/>
</svg>
