<svg width="21" height="20" viewBox="0 0 21 20" fill="none" xmlns="http://www.w3.org/2000/svg">
<path fill-rule="evenodd" clip-rule="evenodd" d="M8.7864 2.70837H12.2138C13.7452 2.70836 14.9583 2.70835 15.9076 2.83599C16.8846 2.96734 17.6754 3.24411 18.299 3.86774C18.9227 4.49138 19.1994 5.28217 19.3308 6.25919C19.4584 7.20853 19.4584 8.42156 19.4584 9.95303V10.0471C19.4584 11.5785 19.4584 12.7915 19.3308 13.7409C19.1994 14.7179 18.9227 15.5087 18.299 16.1323C17.6754 16.756 16.8846 17.0327 15.9076 17.1641C14.9583 17.2917 13.7452 17.2917 12.2138 17.2917H8.78641C7.25494 17.2917 6.04191 17.2917 5.09256 17.1641C4.11554 17.0327 3.32475 16.756 2.70112 16.1323C2.07748 15.5087 1.80072 14.7179 1.66936 13.7409C1.54172 12.7915 1.54174 11.5785 1.54175 10.0471V9.95303C1.54174 8.42156 1.54172 7.20853 1.66936 6.25919C1.80072 5.28217 2.07748 4.49138 2.70112 3.86774C3.32475 3.24411 4.11554 2.96734 5.09256 2.83599C6.04191 2.70835 7.25493 2.70836 8.7864 2.70837ZM5.25912 4.07484C4.42071 4.18756 3.93768 4.39895 3.585 4.75163C3.23233 5.1043 3.02094 5.58734 2.90821 6.42575C2.79308 7.28214 2.79175 8.41102 2.79175 10C2.79175 11.5891 2.79308 12.7179 2.90821 13.5743C3.02094 14.4127 3.23233 14.8958 3.585 15.2485C3.93768 15.6011 4.42071 15.8125 5.25912 15.9252C6.11551 16.0404 7.2444 16.0417 8.83341 16.0417H12.1667C13.7558 16.0417 14.8847 16.0404 15.741 15.9252C16.5794 15.8125 17.0625 15.6011 17.4152 15.2485C17.7678 14.8958 17.9792 14.4127 18.0919 13.5743C18.2071 12.7179 18.2084 11.5891 18.2084 10C18.2084 8.41102 18.2071 7.28214 18.0919 6.42575C17.9792 5.58734 17.7678 5.1043 17.4152 4.75163C17.0625 4.39895 16.5794 4.18756 15.741 4.07484C14.8847 3.9597 13.7558 3.95837 12.1667 3.95837H8.83341C7.2444 3.95837 6.11551 3.9597 5.25912 4.07484ZM5.01994 6.26659C5.24092 6.00142 5.63502 5.96559 5.9002 6.18657L7.69928 7.6858C8.47674 8.33369 9.01652 8.78205 9.47223 9.07515C9.91337 9.35887 10.2125 9.4541 10.5001 9.4541C10.7876 9.4541 11.0868 9.35887 11.5279 9.07515C11.9836 8.78205 12.5234 8.33369 13.3009 7.6858L15.1 6.18657C15.3651 5.96559 15.7592 6.00142 15.9802 6.26659C16.2012 6.53177 16.1654 6.92587 15.9002 7.14685L14.0698 8.67219C13.3312 9.28773 12.7325 9.78664 12.2041 10.1265C11.6537 10.4805 11.1176 10.7041 10.5001 10.7041C9.88252 10.7041 9.34648 10.4805 8.79606 10.1265C8.26768 9.78664 7.66901 9.28774 6.93038 8.67219L5.09997 7.14685C4.83479 6.92587 4.79897 6.53177 5.01994 6.26659Z" fill="#121212" fill-opacity="0.6"/>
</svg>
