<svg width="35" height="34" viewBox="0 0 35 34" fill="none" xmlns="http://www.w3.org/2000/svg">
<path d="M24.9167 29.75V26.9167C24.5409 26.9167 24.1806 26.7674 23.9149 26.5017C23.6493 26.2361 23.5 25.8757 23.5 25.5V24.0833C23.5 23.3319 23.7985 22.6112 24.3299 22.0799C24.8612 21.5485 25.5819 21.25 26.3333 21.25H29.1667C29.9181 21.25 30.6388 21.5485 31.1701 22.0799C31.7015 22.6112 32 23.3319 32 24.0833V25.5C32 25.8757 31.8507 26.2361 31.5851 26.5017C31.3194 26.7674 30.9591 26.9167 30.5833 26.9167" stroke="#7A7A7A" stroke-width="2" stroke-linecap="round" stroke-linejoin="round"/>
<path d="M27.7498 21.25V9.20833C27.7498 7.8933 27.2274 6.63213 26.2976 5.70226C25.3677 4.77239 24.1065 4.25 22.7915 4.25C21.4765 4.25 20.2153 4.77239 19.2854 5.70226C18.3556 6.63213 17.8332 7.8933 17.8332 9.20833V24.7917C17.8332 26.1067 17.3108 27.3679 16.3809 28.2977C15.451 29.2276 14.1899 29.75 12.8748 29.75C11.5598 29.75 10.2986 29.2276 9.36877 28.2977C8.4389 27.3679 7.9165 26.1067 7.9165 24.7917V12.75" stroke="#7A7A7A" stroke-width="2" stroke-linecap="round" stroke-linejoin="round"/>
<path d="M30.5832 29.7498V26.9165H24.9165" stroke="#7A7A7A" stroke-width="2" stroke-linecap="round" stroke-linejoin="round"/>
<path d="M5.08325 7.08333H10.7499V4.25" stroke="#7A7A7A" stroke-width="2" stroke-linecap="round" stroke-linejoin="round"/>
<path d="M10.7498 7.08333C11.1256 7.08333 11.4859 7.23259 11.7516 7.49827C12.0172 7.76394 12.1665 8.12428 12.1665 8.5V9.91667C12.1665 10.6681 11.868 11.3888 11.3366 11.9201C10.8053 12.4515 10.0846 12.75 9.33317 12.75H6.49984C5.74839 12.75 5.02772 12.4515 4.49637 11.9201C3.96501 11.3888 3.6665 10.6681 3.6665 9.91667V8.5C3.6665 8.12428 3.81576 7.76394 4.08144 7.49827C4.34711 7.23259 4.70745 7.08333 5.08317 7.08333V4.25" stroke="#7A7A7A" stroke-width="2" stroke-linecap="round" stroke-linejoin="round"/>
</svg>
