<svg width="20" height="20" viewBox="0 0 20 20" fill="none" xmlns="http://www.w3.org/2000/svg">
<path d="M1.66675 16.6666V9.99992C1.66675 9.55789 1.84234 9.13397 2.1549 8.82141C2.46746 8.50885 2.89139 8.33325 3.33341 8.33325H16.6667C17.1088 8.33325 17.5327 8.50885 17.8453 8.82141C18.1578 9.13397 18.3334 9.55789 18.3334 9.99992V16.6666" stroke="#122B49" stroke-width="2" stroke-linecap="round" stroke-linejoin="round"/>
<path d="M3.33325 8.33325V4.99992C3.33325 4.55789 3.50885 4.13397 3.82141 3.82141C4.13397 3.50885 4.55789 3.33325 4.99992 3.33325H14.9999C15.4419 3.33325 15.8659 3.50885 16.1784 3.82141C16.491 4.13397 16.6666 4.55789 16.6666 4.99992V8.33325" stroke="#122B49" stroke-width="2" stroke-linecap="round" stroke-linejoin="round"/>
<path d="M10 3.33325V8.33325" stroke="#122B49" stroke-width="2" stroke-linecap="round" stroke-linejoin="round"/>
<path d="M1.66675 15H18.3334" stroke="#122B49" stroke-width="2" stroke-linecap="round" stroke-linejoin="round"/>
</svg>
