<svg width="14" height="15" viewBox="0 0 14 15" fill="none" xmlns="http://www.w3.org/2000/svg">
<path d="M12 6.21415C12 10.0713 7 13.9284 7 13.9284C7 13.9284 2 10.0713 2 6.21415C2 4.85018 2.52678 3.54207 3.46447 2.5776C4.40215 1.61312 5.67392 1.07129 7 1.07129C8.32608 1.07129 9.59785 1.61312 10.5355 2.5776C11.4732 3.54207 12 4.85018 12 6.21415Z" fill="#122B49" stroke="#122B49" stroke-width="2" stroke-linecap="round" stroke-linejoin="round"/>
<path d="M6.99994 7.05868C7.68218 7.05868 8.23524 6.46612 8.23524 5.73515C8.23524 5.00419 7.68218 4.41162 6.99994 4.41162C6.31771 4.41162 5.76465 5.00419 5.76465 5.73515C5.76465 6.46612 6.31771 7.05868 6.99994 7.05868Z" fill="white" stroke="white" stroke-width="2" stroke-linecap="round" stroke-linejoin="round"/>
</svg>
