<svg width="35" height="34" viewBox="0 0 35 34" fill="none" xmlns="http://www.w3.org/2000/svg">
<path d="M3.6665 9.91683L9.914 3.66933C10.1776 3.40418 10.491 3.19381 10.8363 3.05036C11.1816 2.9069 11.5518 2.8332 11.9257 2.8335H23.7407C24.1145 2.8332 24.4848 2.9069 24.83 3.05036C25.1753 3.19381 25.4888 3.40418 25.7523 3.66933L31.9998 9.91683" stroke="#7A7A7A" stroke-width="2" stroke-linecap="round" stroke-linejoin="round"/>
<path d="M6.5 17V28.3333C6.5 29.0848 6.79851 29.8054 7.32986 30.3368C7.86122 30.8682 8.58189 31.1667 9.33333 31.1667H26.3333C27.0848 31.1667 27.8054 30.8682 28.3368 30.3368C28.8682 29.8054 29.1667 29.0848 29.1667 28.3333V17" stroke="#7A7A7A" stroke-width="2" stroke-linecap="round" stroke-linejoin="round"/>
<path d="M22.0833 31.1665V25.4998C22.0833 24.7484 21.7847 24.0277 21.2534 23.4964C20.722 22.965 20.0014 22.6665 19.2499 22.6665H16.4166C15.6651 22.6665 14.9445 22.965 14.4131 23.4964C13.8818 24.0277 13.5833 24.7484 13.5833 25.4998V31.1665" stroke="#7A7A7A" stroke-width="2" stroke-linecap="round" stroke-linejoin="round"/>
<path d="M3.6665 9.9165H31.9998" stroke="#7A7A7A" stroke-width="2" stroke-linecap="round" stroke-linejoin="round"/>
<path d="M31.9998 9.9165V14.1665C31.9998 14.918 31.7013 15.6386 31.17 16.17C30.6386 16.7013 29.918 16.9998 29.1665 16.9998C28.3388 16.9543 27.5483 16.6411 26.914 16.1073C26.745 15.9852 26.5417 15.9194 26.3332 15.9194C26.1246 15.9194 25.9214 15.9852 25.7523 16.1073C25.1181 16.6411 24.3275 16.9543 23.4998 16.9998C22.6721 16.9543 21.8816 16.6411 21.2473 16.1073C21.0783 15.9852 20.8751 15.9194 20.6665 15.9194C20.458 15.9194 20.2547 15.9852 20.0857 16.1073C19.4514 16.6411 18.6609 16.9543 17.8332 16.9998C17.0055 16.9543 16.215 16.6411 15.5807 16.1073C15.4116 15.9852 15.2084 15.9194 14.9998 15.9194C14.7913 15.9194 14.588 15.9852 14.419 16.1073C13.7847 16.6411 12.9942 16.9543 12.1665 16.9998C11.3388 16.9543 10.5483 16.6411 9.914 16.1073C9.74497 15.9852 9.54172 15.9194 9.33317 15.9194C9.12462 15.9194 8.92137 15.9852 8.75234 16.1073C8.11805 16.6411 7.32755 16.9543 6.49984 16.9998C5.74839 16.9998 5.02772 16.7013 4.49637 16.17C3.96501 15.6386 3.6665 14.918 3.6665 14.1665V9.9165" stroke="#7A7A7A" stroke-width="2" stroke-linecap="round" stroke-linejoin="round"/>
</svg>
