<svg width="35" height="34" viewBox="0 0 35 34" fill="none" xmlns="http://www.w3.org/2000/svg">
<path d="M9.33325 26.9168V7.0835" stroke="#7A7A7A" stroke-width="2" stroke-linecap="round" stroke-linejoin="round"/>
<path d="M15 26.9166V9.6333" stroke="#7A7A7A" stroke-width="2" stroke-linecap="round" stroke-linejoin="round"/>
<path d="M20.6665 26.9167V15.8667" stroke="#7A7A7A" stroke-width="2" stroke-linecap="round" stroke-linejoin="round"/>
<path d="M26.3333 7.0835V12.7502" stroke="#7A7A7A" stroke-width="2" stroke-linecap="round" stroke-linejoin="round"/>
<path d="M26.3333 26.9165V18.4165" stroke="#7A7A7A" stroke-width="2" stroke-linecap="round" stroke-linejoin="round"/>
<path d="M32 26.9167V12.75" stroke="#7A7A7A" stroke-width="2" stroke-linecap="round" stroke-linejoin="round"/>
<path d="M3.6665 26.9168V12.7502C3.6665 11.2473 4.26353 9.80593 5.32623 8.74322C6.38894 7.68052 7.83028 7.0835 9.33317 7.0835C12.1665 7.0835 14.9998 8.96766 17.8332 12.7502C20.6665 16.5327 23.4998 18.4168 26.3332 18.4168C27.2795 18.4159 28.2106 18.1781 29.0414 17.7249C29.8722 17.2717 30.5762 16.6177 31.0893 15.8225C31.6024 15.0274 31.9082 14.1163 31.9787 13.1726C32.0493 12.2289 31.8824 11.2826 31.4932 10.4199C31.1041 9.55729 30.5051 8.80586 29.7509 8.2342C28.9967 7.66255 28.1114 7.28887 27.1757 7.14728C26.24 7.00569 25.2837 7.1007 24.3942 7.42363C23.5046 7.74655 22.7101 8.28712 22.0832 8.996" stroke="#7A7A7A" stroke-width="2" stroke-linecap="round" stroke-linejoin="round"/>
</svg>
