<svg width="20" height="20" viewBox="0 0 20 20" fill="none" xmlns="http://www.w3.org/2000/svg">
<g clip-path="url(#clip0_24_36751)">
<path d="M10.8333 5.00008C9.91286 5.00008 9.16667 4.25389 9.16667 3.33341C9.16667 2.41294 9.91286 1.66675 10.8333 1.66675C11.7538 1.66675 12.5 2.41294 12.5 3.33341C12.5 4.25389 11.7538 5.00008 10.8333 5.00008Z" stroke="#122B49" stroke-width="2" stroke-linecap="round" stroke-linejoin="round"/>
<path d="M5.00008 8.33333C4.07961 8.33333 3.33341 7.58714 3.33341 6.66667C3.33341 5.74619 4.07961 5 5.00008 5C5.92056 5 6.66675 5.74619 6.66675 6.66667C6.66675 7.58714 5.92056 8.33333 5.00008 8.33333Z" stroke="#122B49" stroke-width="2" stroke-linecap="round" stroke-linejoin="round"/>
<path d="M3.33333 15.0001C2.41286 15.0001 1.66667 14.2539 1.66667 13.3334C1.66667 12.4129 2.41286 11.6667 3.33333 11.6667C4.25381 11.6667 5 12.4129 5 13.3334C5 14.2539 4.25381 15.0001 3.33333 15.0001Z" stroke="#122B49" stroke-width="2" stroke-linecap="round" stroke-linejoin="round"/>
<path d="M12.4999 8.33325C11.9527 8.33325 11.4109 8.44103 10.9054 8.65042C10.3998 8.85981 9.94052 9.16673 9.5536 9.55364C9.16669 9.94055 8.85978 10.3999 8.65038 10.9054C8.44099 11.4109 8.33322 11.9527 8.33322 12.4999V15.4166C8.33344 16.1136 8.5833 16.7876 9.03753 17.3163C9.49177 17.845 10.1203 18.1936 10.8094 18.2989C11.4984 18.4041 12.2024 18.2591 12.7938 17.8902C13.3852 17.5212 13.8249 16.9526 14.0332 16.2874C14.3888 15.1402 15.1388 14.3888 16.2832 14.0333C16.9481 13.825 17.5164 13.3857 17.8854 12.7947C18.2544 12.2038 18.3997 11.5003 18.295 10.8115C18.1903 10.1227 17.8424 9.49416 17.3145 9.0396C16.7865 8.58503 16.1132 8.33447 15.4166 8.33325H12.4999Z" stroke="#122B49" stroke-width="2" stroke-linecap="round" stroke-linejoin="round"/>
</g>
<defs>
<clipPath id="clip0_24_36751">
<rect width="20" height="20" fill="white" transform="matrix(-1 0 0 1 20 0)"/>
</clipPath>
</defs>
</svg>
