<svg width="22" height="22" viewBox="0 0 22 22" fill="none" xmlns="http://www.w3.org/2000/svg">
<path d="M7.33325 2.8418V6.4168C7.33325 7.38926 7.71956 8.32189 8.40719 9.00952C9.09483 9.69716 10.0275 10.0835 10.9999 10.0835C11.9724 10.0835 12.905 9.69716 13.5926 9.00952C14.2803 8.32189 14.6666 7.38926 14.6666 6.4168V2.8418" stroke="black" stroke-width="2" stroke-linecap="round" stroke-linejoin="round"/>
<path d="M8.24992 13.7502L7.33325 12.8335" stroke="black" stroke-width="2" stroke-linecap="round" stroke-linejoin="round"/>
<path d="M13.75 13.7502L14.6667 12.8335" stroke="black" stroke-width="2" stroke-linecap="round" stroke-linejoin="round"/>
<path d="M8.25008 17.4168C5.68341 17.4168 3.66675 15.4002 3.66675 12.8335V9.16683C3.66675 7.22191 4.43937 5.35665 5.81463 3.98138C7.1899 2.60611 9.05516 1.8335 11.0001 1.8335C12.945 1.8335 14.8103 2.60611 16.1855 3.98138C17.5608 5.35665 18.3334 7.22191 18.3334 9.16683V12.8335C18.3334 15.4002 16.3167 17.4168 13.7501 17.4168H8.25008Z" stroke="black" stroke-width="2" stroke-linecap="round" stroke-linejoin="round"/>
<path d="M7.33333 17.4165L5.5 20.1665" stroke="black" stroke-width="2" stroke-linecap="round" stroke-linejoin="round"/>
<path d="M14.6667 17.4165L16.5001 20.1665" stroke="black" stroke-width="2" stroke-linecap="round" stroke-linejoin="round"/>
</svg>
