<svg width="22" height="22" viewBox="0 0 22 22" fill="none" xmlns="http://www.w3.org/2000/svg">
<path d="M18.1176 9.05877C18.1176 14.8823 11 20.7058 11 20.7058C11 20.7058 3.88232 14.8823 3.88232 9.05877C3.88232 6.99945 4.63222 5.02446 5.96704 3.5683C7.30185 2.11213 9.11225 1.29407 11 1.29407C12.8877 1.29407 14.6981 2.11213 16.0329 3.5683C17.3677 5.02446 18.1176 6.99945 18.1176 9.05877Z" fill="#122B49" stroke="#122B49" stroke-width="2" stroke-linecap="round" stroke-linejoin="round"/>
<path d="M11 10.3529C12.0721 10.3529 12.9412 9.48384 12.9412 8.41176C12.9412 7.33968 12.0721 6.47058 11 6.47058C9.92793 6.47058 9.05884 7.33968 9.05884 8.41176C9.05884 9.48384 9.92793 10.3529 11 10.3529Z" fill="white" stroke="white" stroke-width="2" stroke-linecap="round" stroke-linejoin="round"/>
</svg>
