<svg width="20" height="20" viewBox="0 0 20 20" fill="none" xmlns="http://www.w3.org/2000/svg">
<path d="M4.064 9C4.064 9 3.92 1.39162 4.064 1.16784C4.208 0.944065 15.5842 0.944041 15.8721 1.16784C16.1599 1.39164 15.8721 9 15.8721 9" stroke="#122B49" stroke-width="1.8"/>
<path d="M2.75 17.2708H17.25" stroke="#122B49" stroke-width="2" stroke-linecap="round"/>
<path d="M10 1L10 17" stroke="#122B49" stroke-width="1.4"/>
<path d="M13 9.66699L13 16.8974" stroke="#122B49" stroke-width="1.4"/>
<path d="M7.25 9.66699V17.1468" stroke="#122B49" stroke-width="1.4"/>
<path d="M3.98045 9.32615C2.9007 12.4549 2.89189 14.1707 4.48504 17.3372" stroke="#122B49" stroke-width="1.8"/>
<path d="M16.0215 9.04221C17.095 12.2703 17.1003 14.0418 15.5005 17.3143" stroke="#122B49" stroke-width="1.8"/>
<path d="M2 9.625H18" stroke="#122B49" stroke-width="1.6" stroke-linecap="round" stroke-linejoin="round"/>
<path d="M10 2C10 5.85 7.3 9 4 9" stroke="#122B49" stroke-width="1.4" stroke-linecap="round" stroke-linejoin="round"/>
<path d="M10 2C10 5.85 12.7 9 16 9" stroke="#122B49" stroke-width="1.4" stroke-linecap="round" stroke-linejoin="round"/>
</svg>
