<svg width="35" height="34" viewBox="0 0 35 34" fill="none" xmlns="http://www.w3.org/2000/svg">
<path d="M20.9001 20.4001L14.1001 13.6001" stroke="#7A7A7A" stroke-width="2" stroke-linecap="round" stroke-linejoin="round"/>
<path d="M26.9308 30.4371C26.3995 30.9686 25.6789 31.2673 24.9274 31.2674C24.176 31.2675 23.4552 30.9691 22.9238 30.4379C22.3923 29.9066 22.0937 29.1859 22.0935 28.4345C22.0934 27.683 22.3918 26.9623 22.9231 26.4308L20.4198 28.9355C19.8884 29.4669 19.1675 29.7655 18.4159 29.7655C17.6643 29.7655 16.9435 29.4669 16.4121 28.9355C15.8806 28.404 15.582 27.6832 15.582 26.9316C15.582 26.18 15.8806 25.4592 16.4121 24.9277L25.4277 15.9121C25.9592 15.3806 26.68 15.082 27.4316 15.082C28.1832 15.082 28.904 15.3806 29.4355 15.9121C29.9669 16.4435 30.2655 17.1643 30.2655 17.9159C30.2655 18.6675 29.9669 19.3884 29.4355 19.9198L26.9308 22.4231C27.4623 21.8918 28.183 21.5934 28.9345 21.5935C29.6859 21.5937 30.4066 21.8923 30.9379 22.4238C31.4691 22.9552 31.7675 23.676 31.7674 24.4274C31.7673 25.1789 31.4686 25.8995 30.9371 26.4308L26.9308 30.4371Z" stroke="#7A7A7A" stroke-width="2" stroke-linecap="round" stroke-linejoin="round"/>
<path d="M30.9584 30.4584L28.9751 28.4751" stroke="#7A7A7A" stroke-width="2" stroke-linecap="round" stroke-linejoin="round"/>
<path d="M6.02508 5.52484L4.04175 3.5415" stroke="#7A7A7A" stroke-width="2" stroke-linecap="round" stroke-linejoin="round"/>
<path d="M9.57232 18.0882C9.04086 18.6197 8.32005 18.9183 7.56845 18.9183C6.81685 18.9183 6.09603 18.6197 5.56457 18.0882C5.03311 17.5568 4.73454 16.836 4.73454 16.0844C4.73454 15.3328 5.03311 14.6119 5.56457 14.0805L8.06924 11.5772C7.80609 11.8403 7.4937 12.0489 7.14991 12.1913C6.80612 12.3336 6.43766 12.4068 6.06557 12.4068C5.31411 12.4066 4.59347 12.108 4.0622 11.5765C3.79914 11.3134 3.59049 11.001 3.44815 10.6572C3.30582 10.3134 3.2326 9.94495 3.23267 9.57286C3.2328 8.82139 3.53145 8.10076 4.06291 7.56948L8.06924 3.56315C8.60051 3.03169 9.32115 2.73304 10.0726 2.73291C10.4447 2.73284 10.8132 2.80607 11.1569 2.9484C11.5007 3.09073 11.8131 3.29938 12.0763 3.56244C12.3394 3.8255 12.5482 4.13782 12.6906 4.48156C12.8331 4.8253 12.9065 5.19373 12.9065 5.56582C12.9066 5.9379 12.8334 6.30636 12.691 6.65015C12.5487 6.99394 12.34 7.30633 12.077 7.56948L14.5802 5.06482C15.1117 4.53336 15.8325 4.23478 16.5841 4.23478C17.3357 4.23478 18.0565 4.53336 18.588 5.06482C19.1194 5.59628 19.418 6.31709 19.418 7.06869C19.418 7.82029 19.1194 8.54111 18.588 9.07257L9.57232 18.0882Z" stroke="#7A7A7A" stroke-width="2" stroke-linecap="round" stroke-linejoin="round"/>
</svg>
