<svg width="20" height="20" viewBox="0 0 20 20" fill="none" xmlns="http://www.w3.org/2000/svg">
<path d="M10 17.5C11.9891 17.5 13.8968 16.7098 15.3033 15.3033C16.7098 13.8968 17.5 11.9891 17.5 10H2.5C2.5 11.9891 3.29018 13.8968 4.6967 15.3033C6.10322 16.7098 8.01088 17.5 10 17.5Z" stroke="#122B49" stroke-width="2" stroke-linecap="round" stroke-linejoin="round"/>
<path d="M5.83325 17.5H14.1666" stroke="#122B49" stroke-width="2" stroke-linecap="round" stroke-linejoin="round"/>
<path d="M16.25 10L18.3333 5" stroke="#122B49" stroke-width="2" stroke-linecap="round" stroke-linejoin="round"/>
<path d="M13.5415 2.5C13.7665 2.58333 14.2082 2.94167 14.1665 3.63333C14.1165 4.325 13.3915 4.63333 13.3332 5.31667C13.2915 5.96667 13.6165 6.35 13.9415 6.66667" stroke="#122B49" stroke-width="2" stroke-linecap="round" stroke-linejoin="round"/>
<path d="M9.37504 2.5C9.60004 2.58333 10.0417 2.94167 9.99171 3.63333C9.95004 4.325 9.21671 4.63333 9.17504 5.31667C9.12504 5.96667 9.45004 6.35 9.77504 6.66667" stroke="#122B49" stroke-width="2" stroke-linecap="round" stroke-linejoin="round"/>
<path d="M5.20829 2.5C5.43329 2.58333 5.87496 2.94167 5.83329 3.63333C5.78329 4.325 5.05829 4.63333 4.99996 5.31667C4.95829 5.96667 5.28329 6.35 5.61662 6.66667" stroke="#122B49" stroke-width="2" stroke-linecap="round" stroke-linejoin="round"/>
</svg>
