<svg width="35" height="34" viewBox="0 0 35 34" fill="none" xmlns="http://www.w3.org/2000/svg">
<path d="M26.3751 29.7502C29.1135 29.7502 31.3334 27.5302 31.3334 24.7918C31.3334 22.0534 29.1135 19.8335 26.3751 19.8335C23.6367 19.8335 21.4167 22.0534 21.4167 24.7918C21.4167 27.5302 23.6367 29.7502 26.3751 29.7502Z" stroke="#7A7A7A" stroke-width="2" stroke-linecap="round" stroke-linejoin="round"/>
<path d="M7.95833 29.7502C10.6967 29.7502 12.9167 27.5302 12.9167 24.7918C12.9167 22.0534 10.6967 19.8335 7.95833 19.8335C5.21992 19.8335 3 22.0534 3 24.7918C3 27.5302 5.21992 29.7502 7.95833 29.7502Z" stroke="#7A7A7A" stroke-width="2" stroke-linecap="round" stroke-linejoin="round"/>
<path d="M21.4167 8.49984C22.1991 8.49984 22.8333 7.86557 22.8333 7.08317C22.8333 6.30077 22.1991 5.6665 21.4167 5.6665C20.6343 5.6665 20 6.30077 20 7.08317C20 7.86557 20.6343 8.49984 21.4167 8.49984Z" stroke="#7A7A7A" stroke-width="2" stroke-linecap="round" stroke-linejoin="round"/>
<path d="M17.1667 24.7918V19.8335L12.9167 15.5835L18.5834 11.3335L21.4167 15.5835H24.2501" stroke="#7A7A7A" stroke-width="2" stroke-linecap="round" stroke-linejoin="round"/>
</svg>
