<svg width="36" height="34" viewBox="0 0 36 34" fill="none" xmlns="http://www.w3.org/2000/svg">
<g clip-path="url(#clip0_24_1329)">
<path d="M26.5051 19.9487H32.4572C32.7365 19.9489 33.011 20.0194 33.2549 20.1536C33.4987 20.2878 33.7038 20.4813 33.8505 20.7156C33.9973 20.9499 34.0809 21.2174 34.0935 21.4925C34.1061 21.7677 34.0471 22.0415 33.9223 22.2879L30.589 28.8655C30.4626 29.1148 30.273 29.3276 30.0387 29.4832C29.8043 29.6389 29.5332 29.7321 29.2515 29.7539C28.9698 29.7757 28.6872 29.7253 28.4311 29.6076C28.1751 29.4899 27.9542 29.3089 27.7899 29.0821L24.3091 24.281" stroke="#7A7A7A" stroke-width="2" stroke-linecap="round" stroke-linejoin="round"/>
<path d="M27.0883 15.1852C27.4767 15.377 27.7721 15.713 27.9094 16.1195C28.0468 16.526 28.0149 16.9696 27.8209 17.353L22.7307 27.3932C22.6345 27.5832 22.5012 27.7525 22.3386 27.8916C22.1759 28.0307 21.9871 28.1369 21.7829 28.204C21.5786 28.2711 21.363 28.2978 21.1483 28.2827C20.9335 28.2676 20.724 28.2109 20.5315 28.1158L4.97099 20.4341C3.84076 19.8725 2.98206 18.8922 2.58279 17.7076C2.18352 16.5231 2.2762 15.2307 2.84054 14.1134L5.10209 9.60329C5.38397 9.04918 5.77374 8.55526 6.24916 8.14976C6.72457 7.74425 7.27631 7.4351 7.87286 7.23995C8.46941 7.0448 9.09909 6.96748 9.72594 7.01241C10.3528 7.05734 10.9645 7.22363 11.5262 7.5018L27.0883 15.1852Z" stroke="#7A7A7A" stroke-width="2" stroke-linecap="round" stroke-linejoin="round"/>
<path d="M2.33325 31.2645H8.49517C9.106 31.2687 9.70586 31.1044 10.2271 30.7902C10.7483 30.476 11.1702 30.0244 11.445 29.4863L13.8049 24.7983" stroke="#7A7A7A" stroke-width="2" stroke-linecap="round" stroke-linejoin="round"/>
<path d="M2.33325 34.4974V28.0312" stroke="#7A7A7A" stroke-width="2" stroke-linecap="round" stroke-linejoin="round"/>
<path d="M10.5415 12.75H10.5557" stroke="#7A7A7A" stroke-width="2" stroke-linecap="round" stroke-linejoin="round"/>
</g>
<defs>
<clipPath id="clip0_24_1329">
<rect width="35" height="34" fill="white" transform="translate(0.333252)"/>
</clipPath>
</defs>
</svg>
