<svg width="33" height="36" viewBox="0 0 33 36" fill="none" xmlns="http://www.w3.org/2000/svg">
<path d="M29.8334 12.5252V30.0002C29.8334 30.7959 29.5525 31.5589 29.0524 32.1215C28.5523 32.6841 27.874 33.0002 27.1667 33.0002H5.83341C5.12617 33.0002 4.44789 32.6841 3.9478 32.1215C3.4477 31.5589 3.16675 30.7959 3.16675 30.0002V12.5252C3.16889 11.9269 3.33 11.343 3.62936 10.8486C3.92873 10.3541 4.35268 9.97157 4.84675 9.75021L15.5134 4.95021C16.147 4.66634 16.8532 4.66634 17.4867 4.95021L28.1534 9.75021C28.6475 9.97157 29.0714 10.3541 29.3708 10.8486C29.6702 11.343 29.8313 11.9269 29.8334 12.5252Z" stroke="#7A7A7A" stroke-width="2" stroke-linecap="round" stroke-linejoin="round"/>
<path d="M8.5 27H24.5" stroke="#7A7A7A" stroke-width="2" stroke-linecap="round" stroke-linejoin="round"/>
<path d="M8.5 21H24.5" stroke="#7A7A7A" stroke-width="2" stroke-linecap="round" stroke-linejoin="round"/>
<path d="M24.5 15H8.5V33H24.5V15Z" stroke="#7A7A7A" stroke-width="2" stroke-linecap="round" stroke-linejoin="round"/>
</svg>
