<svg width="35" height="34" viewBox="0 0 35 34" fill="none" xmlns="http://www.w3.org/2000/svg">
<path d="M12.8748 20.5417C13.8141 20.5417 14.715 20.1685 15.3792 19.5043C16.0434 18.8401 16.4165 17.9393 16.4165 17C16.4165 15.045 15.7082 14.1667 14.9998 12.75C13.4812 9.71408 14.6825 7.00683 17.8332 4.25C18.5415 7.79167 20.6665 11.1917 23.4998 13.4583C26.3332 15.725 27.7498 18.4167 27.7498 21.25C27.7498 22.5523 27.4933 23.8418 26.995 25.0449C26.4966 26.2481 25.7662 27.3413 24.8453 28.2621C23.9245 29.183 22.8313 29.9134 21.6281 30.4118C20.425 30.9102 19.1354 31.1667 17.8332 31.1667C16.5309 31.1667 15.2414 30.9102 14.0382 30.4118C12.8351 29.9134 11.7419 29.183 10.821 28.2621C9.90018 27.3413 9.16972 26.2481 8.67137 25.0449C8.17301 23.8418 7.9165 22.5523 7.9165 21.25C7.9165 19.6166 8.52992 18.0002 9.33317 17C9.33317 17.9393 9.70631 18.8401 10.3705 19.5043C11.0347 20.1685 11.9355 20.5417 12.8748 20.5417Z" stroke="#7A7A7A" stroke-width="2" stroke-linecap="round" stroke-linejoin="round"/>
</svg>
