<svg width="35" height="34" viewBox="0 0 35 34" fill="none" xmlns="http://www.w3.org/2000/svg">
<path d="M3.33325 8.50016C4.18325 9.2085 5.03325 9.91683 6.87492 9.91683C10.4166 9.91683 10.4166 7.0835 13.9583 7.0835C17.6416 7.0835 17.3583 9.91683 21.0416 9.91683C24.5833 9.91683 24.5833 7.0835 28.1249 7.0835C29.9666 7.0835 30.8166 7.79183 31.6666 8.50016" stroke="#7A7A7A" stroke-width="2" stroke-linecap="round" stroke-linejoin="round"/>
<path d="M3.33325 17.0002C4.18325 17.7085 5.03325 18.4168 6.87492 18.4168C10.4166 18.4168 10.4166 15.5835 13.9583 15.5835C17.6416 15.5835 17.3583 18.4168 21.0416 18.4168C24.5833 18.4168 24.5833 15.5835 28.1249 15.5835C29.9666 15.5835 30.8166 16.2918 31.6666 17.0002" stroke="#7A7A7A" stroke-width="2" stroke-linecap="round" stroke-linejoin="round"/>
<path d="M3.33325 25.5002C4.18325 26.2085 5.03325 26.9168 6.87492 26.9168C10.4166 26.9168 10.4166 24.0835 13.9583 24.0835C17.6416 24.0835 17.3583 26.9168 21.0416 26.9168C24.5833 26.9168 24.5833 24.0835 28.1249 24.0835C29.9666 24.0835 30.8166 24.7918 31.6666 25.5002" stroke="#7A7A7A" stroke-width="2" stroke-linecap="round" stroke-linejoin="round"/>
</svg>
