<svg width="33" height="34" viewBox="0 0 33 34" fill="none" xmlns="http://www.w3.org/2000/svg">
<path d="M24.4999 2.8335H8.49992C7.02716 2.8335 5.83325 4.10202 5.83325 5.66683V28.3335C5.83325 29.8983 7.02716 31.1668 8.49992 31.1668H24.4999C25.9727 31.1668 27.1666 29.8983 27.1666 28.3335V5.66683C27.1666 4.10202 25.9727 2.8335 24.4999 2.8335Z" stroke="#7A7A7A" stroke-width="2" stroke-linecap="round" stroke-linejoin="round"/>
<path d="M16.5 8.5H16.5133" stroke="#7A7A7A" stroke-width="2" stroke-linecap="round" stroke-linejoin="round"/>
<path d="M16.5001 25.4998C19.4456 25.4998 21.8334 22.9628 21.8334 19.8332C21.8334 16.7036 19.4456 14.1665 16.5001 14.1665C13.5546 14.1665 11.1667 16.7036 11.1667 19.8332C11.1667 22.9628 13.5546 25.4998 16.5001 25.4998Z" stroke="#7A7A7A" stroke-width="2" stroke-linecap="round" stroke-linejoin="round"/>
<path d="M16.5 19.8335H16.5133" stroke="#7A7A7A" stroke-width="2" stroke-linecap="round" stroke-linejoin="round"/>
</svg>
